HIERARCHY
ROOT Bip001_Pelvis
{
  OFFSET 34.4345 95.6767 -26.8758
  CHANNELS 6 Xposition Yposition Zposition Zrotation Xrotation Yrotation
  JOINT Bip001_Spine
  {
    OFFSET 1.4188e-005 10.2191 -0.0116013
    CHANNELS 3 Zrotation Xrotation Yrotation
    JOINT Bip001_L_Thigh
    {
      OFFSET 11.0458 -10.2192 0.0116197
      CHANNELS 3 Zrotation Xrotation Yrotation
      JOINT Bip001_L_Calf
      {
        OFFSET -0.707118 -44.0221 0.360014
        CHANNELS 3 Zrotation Xrotation Yrotation
        JOINT Bip001_L_Foot
        {
          OFFSET -0.651902 -40.5938 -3.56146
          CHANNELS 3 Zrotation Xrotation Yrotation
          JOINT Bip001_L_Toe0
          {
            OFFSET 0.0530839 -10.2181 13.1504
            CHANNELS 3 Zrotation Xrotation Yrotation
            End Site
            {
              OFFSET -1.02532e-005 0 7.55606
            }
          }
        }
      }
    }
    JOINT Bip001_R_Thigh
    {
      OFFSET -11.0458 -10.2191 0.0115893
      CHANNELS 3 Zrotation Xrotation Yrotation
      JOINT Bip001_R_Calf
      {
        OFFSET 0.706994 -44.0221 0.35984
        CHANNELS 3 Zrotation Xrotation Yrotation
        JOINT Bip001_R_Foot
        {
          OFFSET 0.651786 -40.5938 -3.5613
          CHANNELS 3 Zrotation Xrotation Yrotation
          JOINT Bip001_R_Toe0
          {
            OFFSET -0.0531479 -10.2181 13.1504
            CHANNELS 3 Zrotation Xrotation Yrotation
            End Site
            {
              OFFSET -1.02894e-005 0 7.55606
            }
          }
        }
      }
    }
    JOINT Bip001_Spine1
    {
      OFFSET 1.87041e-005 14.5736 1.08638
      CHANNELS 3 Zrotation Xrotation Yrotation
      JOINT Bip001_Spine2
      {
        OFFSET 2.24614e-005 14.5058 -1.69078
        CHANNELS 3 Zrotation Xrotation Yrotation
        JOINT Bip001_Neck
        {
          OFFSET 2.20278e-005 15.3945 -0.489414
          CHANNELS 3 Zrotation Xrotation Yrotation
          JOINT Bip001_L_Clavicle
          {
            OFFSET 6.06036 -0.000579998 0.00836775
            CHANNELS 3 Zrotation Xrotation Yrotation
            JOINT Bip001_L_UpperArm
            {
              OFFSET 11.5509 -0.0600302 0.00193952
              CHANNELS 3 Zrotation Xrotation Yrotation
              JOINT Bip001_L_Forearm
              {
                OFFSET 25.9523 0.0806089 -2.15551
                CHANNELS 3 Zrotation Xrotation Yrotation
                JOINT Bip001_L_Hand
                {
                  OFFSET 32.2475 0.153767 1.63968
                  CHANNELS 3 Zrotation Xrotation Yrotation
                  JOINT Bip001_L_Finger0
                  {
                    OFFSET 6.04639 -2.20976 5.90322
                    CHANNELS 3 Zrotation Xrotation Yrotation
                    End Site
                    {
                      OFFSET 4.22375 -1.43895 0.606485
                    }
                  }
                  JOINT Bip001_L_Finger1
                  {
                    OFFSET 11.0826 -0.704819 -0.198153
                    CHANNELS 3 Zrotation Xrotation Yrotation
                    End Site
                    {
                      OFFSET 6.20027 -0.397518 -0.0787166
                    }
                  }
                }
              }
            }
          }
          JOINT Bip001_R_Clavicle
          {
            OFFSET -6.06037 -0.000563197 0.00835105
            CHANNELS 3 Zrotation Xrotation Yrotation
            JOINT Bip001_R_UpperArm
            {
              OFFSET -11.5509 -0.0599978 0.00190698
              CHANNELS 3 Zrotation Xrotation Yrotation
              JOINT Bip001_R_Forearm
              {
                OFFSET -25.9523 0.0806822 -2.15589
                CHANNELS 3 Zrotation Xrotation Yrotation
                JOINT Bip001_R_Hand
                {
                  OFFSET -32.2475 0.153859 1.63989
                  CHANNELS 3 Zrotation Xrotation Yrotation
                  JOINT Bip001_R_Finger0
                  {
                    OFFSET -6.04641 -2.20976 5.90317
                    CHANNELS 3 Zrotation Xrotation Yrotation
                    End Site
                    {
                      OFFSET -4.22376 -1.43895 0.60647
                    }
                  }
                  JOINT Bip001_R_Finger1
                  {
                    OFFSET -11.0826 -0.704794 -0.198182
                    CHANNELS 3 Zrotation Xrotation Yrotation
                    End Site
                    {
                      OFFSET -6.20028 -0.397504 -0.0787333
                    }
                  }
                }
              }
            }
          }
          JOINT Bip001_Head
          {
            OFFSET 1.09673e-005 11.2744 2.05948
            CHANNELS 3 Zrotation Xrotation Yrotation
            End Site
            {
              OFFSET 2.89576e-005 20.8808 -2.77728e-005
            }
          }
        }
      }
    }
  }
}
MOTION
Frames:	6
Frame Time:	0.04
34.3564 96.0217 -28.0575 0.540829 -0.295415 1.03155 -0.232574 2.04207 -0.515653 3.87046 -1.6062 6.05591 -0.433637 5.35615 -5.29269 3.09388 -3.61217 -0.0522183 0.865389 -4.29791 -0.348815 -4.33711 -2.47169 -2.1789 0.034881 9.52323 0.345449 -4.8636 -8.97158 3.49276 2.24652 -7.66519 2.43702 -0.447096 4.09105 -1.02397 -0.447097 4.09105 -1.02397 1.64503 -7.4842 -2.25463 -25.872 8.55528 -0.484992 -58.0785 47.5341 5.26817 15.6304 -4.1625 -22.2055 7.51286 0.504553 -2.7822 3.53112e-031 6.36111e-015 -3.18055e-015 1.76556e-031 6.36111e-015 -1.59028e-015 22.6818 15.6554 21.0989 68.4382 44.1161 -14.8373 -18.5943 9.85095 13.5657 -3.59165 -0.944454 3.89547 -3.18055e-015 3.18055e-015 -0 -1.59028e-015 4.77083e-015 1.98785e-016 0.198976 -4.94147 -1.83803 
34.4126 96.0279 -28.1059 0.658061 -0.223251 0.843495 -0.271068 2.02132 -0.476236 3.67009 -1.51567 6.01424 -0.330363 5.04379 -5.14342 3.14074 -3.40156 -0.0522065 0.882588 -4.35221 -0.336679 -4.49222 -2.66215 -2.14005 0.0768193 9.6823 0.345611 -4.81715 -9.02078 3.59159 2.24231 -7.66029 2.40705 -0.525796 4.04481 -0.943772 -0.525795 4.04481 -0.94377 1.54923 -7.57583 -2.33458 -25.8243 8.65542 -0.526898 -57.6857 47.6804 5.13562 15.5054 -4.03142 -22.3291 7.71523 0.727007 -2.88353 6.36111e-015 -9.54166e-015 -1.59028e-015 6.36111e-015 -1.59028e-014 -3.18055e-015 23.029 15.8065 21.0213 68.1432 44.9212 -15.4895 -19.0393 6.73439 14.0641 -1.14153 -0.272173 4.41183 -3.18055e-015 -4.77083e-015 1.98785e-016 -1.59028e-015 -4.77083e-015 -0 0.373942 -4.93137 -1.9735 
34.4814 96.0248 -28.0853 0.841709 -0.405205 0.633923 -0.313799 2.04662 -0.43513 3.42703 -1.17785 6.26066 -0.242863 4.75658 -5.19754 3.12392 -3.3028 -0.0522013 0.908393 -4.35473 -0.382682 -4.72324 -2.65883 -2.28144 0.0835461 9.96843 0.394631 -4.74459 -9.1971 3.85045 2.24263 -7.65149 2.39887 -0.61366 4.09556 -0.860184 -0.613164 4.09555 -0.859976 1.37367 -7.7806 -2.3664 -25.7279 8.846 -0.430917 -57.3726 47.7756 5.0547 15.5251 -3.71753 -22.5202 7.97574 0.807775 -3.02529 -3.18055e-015 -6.36111e-015 3.18055e-015 -3.18055e-015 -1.27222e-014 1.59028e-015 23.334 16.0029 20.8258 67.1721 44.7296 -14.8583 -18.4897 5.62954 13.996 -0.643028 0.156759 4.32479 1.59028e-015 0 -3.97569e-016 3.18055e-015 -1.59028e-015 -3.97569e-016 0.27038 -4.77495 -2.02845 
34.4551 96.0226 -28.1298 0.688815 -0.395591 0.60827 -0.242546 2.02503 -0.396589 3.59905 -1.36703 5.98808 -0.360327 5.13096 -4.86456 3.0617 -3.53457 -0.0522139 0.915048 -4.26809 -0.393479 -4.60345 -2.62501 -2.2598 0.0561035 9.84348 0.395319 -4.75452 -9.08089 3.83384 2.24394 -7.66046 2.38521 -0.471863 4.053 -0.777899 -0.471857 4.05301 -0.777784 1.06899 -8.2253 -2.38676 -25.7359 9.25584 -0.194122 -57.284 47.8745 5.0898 15.6581 -3.43981 -22.6657 8.00176 0.813599 -3.15399 -0 0 1.59028e-015 0 3.18056e-015 -0 23.4078 16.1326 19.9734 66.5445 44.7669 -13.7724 -18.2165 6.1728 13.5796 -0.53494 -0.118565 4.70287 -3.18055e-015 0 -0 -4.77083e-015 1.59028e-015 3.97569e-016 0.0656008 -4.24493 -2.07275 
34.4515 96.0205 -28.1465 0.646675 -0.419753 0.602783 -0.231136 2.02062 -0.397887 3.63819 -1.37873 5.87089 -0.404901 5.18414 -4.82258 3.30868 -3.434 -0.0522083 0.946346 -4.38868 -0.396092 -4.57569 -2.59404 -2.32135 0.0538814 9.81553 0.379638 -4.72007 -9.07075 3.91045 2.24244 -7.6284 2.38027 -0.4498 4.04277 -0.772891 -0.449844 4.04277 -0.772726 0.786604 -8.28867 -2.2628 -25.4836 9.37062 -0.226094 -57.1928 47.7057 5.00448 15.6427 -3.41856 -22.7075 7.92852 0.922252 -3.10451 -3.18055e-015 -9.54166e-015 -3.18055e-015 -3.18055e-015 -9.54167e-015 -1.59028e-015 23.9158 16.2352 19.9547 65.8822 44.3307 -13.0726 -17.7597 5.87017 13.4785 -0.934012 0.0451919 3.99019 3.18055e-015 -1.59028e-015 -7.95139e-016 4.77083e-015 0 -7.95139e-016 0.114729 -4.01493 -2.03354 
34.4462 96.0211 -28.1518 0.631358 -0.446361 0.625249 -0.230799 2.01221 -0.400264 3.67898 -1.34593 5.81312 -0.448475 5.17766 -4.78772 3.24196 -3.46933 -0.0522102 0.926286 -4.36757 -0.398666 -4.5577 -2.51417 -2.28588 0.0637585 9.72144 0.37662 -4.72889 -9.04573 3.86114 2.24233 -7.62653 2.38186 -0.447847 4.03095 -0.771313 -0.44785 4.03096 -0.771304 0.786512 -8.32141 -2.22718 -25.4782 9.38143 -0.134126 -57.2326 47.5991 4.94292 15.6105 -3.41306 -22.6656 7.93818 0.873808 -3.0252 -3.18055e-015 0 -0 -6.36111e-015 6.36111e-015 1.59028e-015 24.0638 16.36 20.1392 65.8865 44.7931 -12.7971 -17.5077 4.53755 13.1624 -0.877173 -0.0697534 3.88373 -1.59028e-015 3.18055e-015 -3.97569e-016 -3.18055e-015 1.59028e-015 3.97569e-016 0.0608058 -3.91529 -1.98922 
